<mxfile host="app.diagrams.net" modified="2023-11-02T01:20:48.537Z" agent="Mozilla/5.0 (Windows NT 10.0; Win64; x64; rv:109.0) Gecko/20100101 Firefox/118.0" etag="AvrRb9JSR4nsTm1QVm_b" version="22.0.8" type="github">
  <diagram name="Page-1" id="hNv8BGDzCZ_7Tir7Yz_3">
    <mxGraphModel dx="862" dy="470" grid="1" gridSize="10" guides="1" tooltips="1" connect="1" arrows="1" fold="1" page="1" pageScale="1" pageWidth="850" pageHeight="1100" math="0" shadow="0">
      <root>
        <mxCell id="0" />
        <mxCell id="1" parent="0" />
        <mxCell id="GnJm8GpYx7fElEuSM-US-6" value="" style="edgeStyle=orthogonalEdgeStyle;rounded=0;orthogonalLoop=1;jettySize=auto;html=1;" edge="1" parent="1" source="GnJm8GpYx7fElEuSM-US-1" target="GnJm8GpYx7fElEuSM-US-2">
          <mxGeometry relative="1" as="geometry" />
        </mxCell>
        <mxCell id="GnJm8GpYx7fElEuSM-US-1" value="start" style="rounded=1;whiteSpace=wrap;html=1;" vertex="1" parent="1">
          <mxGeometry x="320" y="80" width="110" height="50" as="geometry" />
        </mxCell>
        <mxCell id="GnJm8GpYx7fElEuSM-US-7" value="" style="edgeStyle=orthogonalEdgeStyle;rounded=0;orthogonalLoop=1;jettySize=auto;html=1;" edge="1" parent="1" source="GnJm8GpYx7fElEuSM-US-2" target="GnJm8GpYx7fElEuSM-US-3">
          <mxGeometry relative="1" as="geometry" />
        </mxCell>
        <mxCell id="GnJm8GpYx7fElEuSM-US-2" value="Luas &lt;br&gt;a&lt;br&gt;t" style="shape=parallelogram;perimeter=parallelogramPerimeter;whiteSpace=wrap;html=1;fixedSize=1;" vertex="1" parent="1">
          <mxGeometry x="302.5" y="170" width="145" height="50" as="geometry" />
        </mxCell>
        <mxCell id="GnJm8GpYx7fElEuSM-US-8" value="" style="edgeStyle=orthogonalEdgeStyle;rounded=0;orthogonalLoop=1;jettySize=auto;html=1;" edge="1" parent="1" source="GnJm8GpYx7fElEuSM-US-3" target="GnJm8GpYx7fElEuSM-US-4">
          <mxGeometry relative="1" as="geometry">
            <Array as="points">
              <mxPoint x="375" y="350" />
              <mxPoint x="375" y="350" />
            </Array>
          </mxGeometry>
        </mxCell>
        <mxCell id="GnJm8GpYx7fElEuSM-US-3" value="Luas=1/2 x a x t" style="rounded=0;whiteSpace=wrap;html=1;" vertex="1" parent="1">
          <mxGeometry x="306.25" y="270" width="137.5" height="50" as="geometry" />
        </mxCell>
        <mxCell id="GnJm8GpYx7fElEuSM-US-9" value="" style="edgeStyle=orthogonalEdgeStyle;rounded=0;orthogonalLoop=1;jettySize=auto;html=1;" edge="1" parent="1" source="GnJm8GpYx7fElEuSM-US-4" target="GnJm8GpYx7fElEuSM-US-5">
          <mxGeometry relative="1" as="geometry" />
        </mxCell>
        <mxCell id="GnJm8GpYx7fElEuSM-US-4" value="Luas" style="shape=parallelogram;perimeter=parallelogramPerimeter;whiteSpace=wrap;html=1;fixedSize=1;" vertex="1" parent="1">
          <mxGeometry x="315" y="360" width="120" height="60" as="geometry" />
        </mxCell>
        <mxCell id="GnJm8GpYx7fElEuSM-US-5" value="end" style="rounded=1;whiteSpace=wrap;html=1;" vertex="1" parent="1">
          <mxGeometry x="315" y="470" width="120" height="60" as="geometry" />
        </mxCell>
      </root>
    </mxGraphModel>
  </diagram>
</mxfile>
